<?xml version="1.0" encoding="utf-8"?><svg id="Layer_1" xmlns="http://www.w3.org/2000/svg" viewBox="0 0 108 36"><style>.st0{fill:#00406e}</style><path class="st0" d="M.1 11.2h7v20.7h8.8V11.2H23V4.3H.1zM69.8 5l-5.1 8.8L59.5 5h-9.7l10.6 15.3v11h8.4v-11L79.5 5zM99.4 0c-.3 0-.6.3-.6.6v5.7c-.3-.2-.5-.3-.8-.5-2.2-1.1-5-1.7-8-1.7-4.8 0-9.3 1.5-11 5.4-.5 1-.8 2.2-.8 3.4 0 5.6 4.8 7 7.2 7.7 1.1.3 6 1.1 6.9 1.5 1.5.5 1.5 1.5 1.5 1.6 0 1.9-3.3 2-4 2-1.3 0-2.6-.2-3.7-.6-2.3-.7-2.9-1.7-3.7-2.9L76 26.3c1.2 1.5 3.2 3.8 7.4 5 2.1.6 4.2.8 6.2.8 1.3 0 5.9 0 9.3-2.6v5.9c0 .3.3.6.6.6s.6-.3.6-.6V.6c-.1-.3-.3-.6-.7-.6zm-.6 16.7c-2.2-1.4-5.4-1.9-8.5-2.5-2.3-.4-3.7-.7-3.7-2s1.6-1.7 3-1.7 3.4.2 4.9 1c1.2.6 1.6 1.2 2 1.7l2.2-1.8v5.3zM39 14.2c-2.3-.4-3.7-.7-3.7-2s1.6-1.7 3-1.7 3.4.2 4.9 1c1.2.6 1.6 1.2 2 1.7l5.3-4.4c-.9-1-1.9-2-3.9-3-2.2-1.1-5-1.7-8-1.7-3.9 0-7.6 1-9.8 3.5v-7c0-.3-.3-.6-.6-.6s-.6.3-.6.6v34.8c0 .3.3.6.6.6s.6-.3.6-.6V30c.9.5 1.9 1 3.2 1.3 2.1.6 4.2.8 6.2.8 1.5 0 6.8 0 10.2-3.4 1.2-1.2 2.4-3.2 2.4-5.9 0-6.5-5.9-7.6-11.8-8.6zm-.4 11.5c-1.3 0-2.6-.2-3.7-.6-2.3-.7-2.9-1.7-3.7-2.9l-2.3 1.4V18c1.6 1.6 3.8 2.3 5.3 2.6 1.1.3 6 1.1 6.9 1.5 1.5.5 1.5 1.5 1.5 1.6-.1 1.9-3.4 2-4 2zM107.6 5.7c-.2-.3-.5-.6-.8-.8-.3-.2-.7-.3-1.1-.3-.4 0-.7.1-1.1.3-.3.2-.6.5-.8.8-.2.3-.3.7-.3 1.1 0 .4.1.7.3 1.1.2.3.5.6.8.8.3.2.7.3 1.1.3.4 0 .7-.1 1.1-.3.3-.2.6-.5.8-.8.2-.3.3-.7.3-1.1 0-.4-.1-.7-.3-1.1zm-.3 2c-.2.3-.4.5-.6.6-.3.2-.6.2-.9.2-.3 0-.6-.1-.9-.2-.3-.2-.5-.4-.6-.6-.2-.3-.2-.6-.2-.9 0-.3.1-.6.2-.9.2-.3.4-.5.7-.6.3-.2.6-.2.9-.2.3 0 .6.1.9.2.3.1.5.4.7.6.2.3.2.6.2.9-.2.3-.3.6-.4.9z"/><path class="st0" d="M106.3 7.2l-.2-.2s-.1-.1-.2-.1c.2 0 .4-.1.5-.2.1-.1.2-.3.2-.4 0-.1 0-.2-.1-.3-.1-.1-.1-.2-.2-.2s-.2-.1-.4-.1h-1.2V8h.5V7h.1c.1 0 .2 0 .3.1.1.1.2.2.3.5l.2.4h.6l-.3-.5c0-.1-.1-.2-.1-.3zm-.4-.6h-.7v-.5h.7c.1 0 .1.1.2.1 0 0 .1.1.1.2s0 .1-.1.2h-.2z"/></svg>