<?xml version="1.0" encoding="utf-8"?>
<!-- Generator: Adobe Illustrator 21.0.0, SVG Export Plug-In . SVG Version: 6.00 Build 0)  -->
<svg version="1.1" id="Layer_1" xmlns="http://www.w3.org/2000/svg" xmlns:xlink="http://www.w3.org/1999/xlink" x="0px" y="0px"
	 viewBox="0 0 24 24" height="256" width="256" style="enable-background:new 0 0 24 24;" xml:space="preserve">
<path d="M22.7444458,7.7554932C21.9074707,6.9185181,20.9014282,6.5,19.7263794,6.5h-3.7183228v1.835022
	c-0.4990234-0.5634155-1.0985718-1.0100708-1.7988281-1.3400879C13.5090332,6.664978,12.7565308,6.5,11.9517212,6.5H6.3500977
	L0,17.3893433h4.3219604l1.3521118-2.3179321h2.7525024v2.3179321h3.5251465c0.8048096,0,1.557312-0.1610107,2.2575073-0.4829102
	c0.7002563-0.3219604,1.2998047-0.7645874,1.7988281-1.3280029v1.8109131h3.7183228v-2.3179321
	c1.1750488,0,2.1810913-0.4185181,3.0180664-1.2555542C23.5814819,12.9788818,24,11.9647827,24,10.7736206
	C24,9.5985718,23.5814819,8.5925293,22.7444458,7.7554932z M21.7786865,12.8500977
	c-0.5634155,0.5633545-1.2474976,0.8450317-2.0523071,0.8450317h-1.3762817v2.3421021h-0.9658203v-2.3421021H15.645874
	c-0.3219604,0.6921997-0.8128662,1.2555542-1.4728394,1.6901855c-0.6599731,0.4345703-1.4003906,0.6519165-2.2213135,0.6519165
	H9.8027954v-2.3179321H4.9014282l-1.3762817,2.3179321H2.3903198l4.7807007-8.1610107h4.7807007
	c1.0301514,0,1.9275513,0.3340454,2.6921387,1.0020142c0.7645874,0.6680298,1.2192993,1.5010376,1.3641968,2.4990234h1.3762207
	V7.8762207h2.3421021c0.8048096,0,1.4888916,0.2817383,2.0523071,0.8450928
	c0.5633545,0.5633545,0.8450317,1.2555542,0.8450317,2.0764771C22.6237183,11.6026001,22.342041,12.2866821,21.7786865,12.8500977z
	 M9.7786722,8.8420525v3.8873234H5.4567404L6.253521,11.377264h2.1730385V8.8420525H9.7786722z M15.0663986,11.9567404
	c0,0.8531189-0.3018112,1.5855131-0.9054327,2.1971836c-0.6036215,0.6116695-1.3400402,0.9175043-2.2092552,0.9175043h-1.1830988
	v-1.3762569h1.1830988c0.4828968,0,0.8973837-0.169014,1.2434607-0.5070429
	c0.346076-0.338028,0.5191145-0.7484903,0.5191145-1.2313881s-0.1730385-0.8973846-0.5191145-1.2434607
	c-0.346077-0.346077-0.7605639-0.5191145-1.2434607-0.5191145h-1.1830988V8.8420525h1.1830988
	c0.8531179,0,1.5855131,0.3018103,2.1971827,0.9054327C14.7605639,10.3511066,15.0663986,11.0875254,15.0663986,11.9567404z
	 M19.7263584,8.8420525c0.5311871,0,0.9859161,0.1891346,1.3641853,0.5674047
	c0.3782692,0.3782692,0.5674038,0.8410454,0.5674038,1.3883295c0,0.5311871-0.1891346,0.9859152-0.5674038,1.3641853
	c-0.3782692,0.3782692-0.8329983,0.5674038-1.3641853,0.5674038h-1.3762569V11.377264h1.3762569
	c0.160965,0,0.2977867-0.0603628,0.4104633-0.1810865c0.1126747-0.1207247,0.169014-0.26157,0.169014-0.4225359
	s-0.0563393-0.2977867-0.169014-0.4104624c-0.1126766-0.1126766-0.2494984-0.169014-0.4104633-0.169014h-1.3762569V8.8420525
	H19.7263584z M21.7545166,15.9526978c-0.1609497-0.1690063-0.3621826-0.25354-0.6036377-0.25354
	c-0.241394,0-0.442627,0.0845337-0.6035767,0.25354c-0.1610107,0.1690063-0.2414551,0.3662109-0.2414551,0.5915527
	c0,0.2414551,0.0804443,0.442627,0.2414551,0.6036377c0.1609497,0.1609497,0.3621826,0.2414551,0.6035767,0.2414551
	c0.2414551,0,0.442688-0.0805054,0.6036377-0.2414551c0.1609497-0.1610107,0.2414551-0.3621826,0.2414551-0.6036377
	C21.9959717,16.3189087,21.9154663,16.1217041,21.7545166,15.9526978z M21.645874,17.0392456
	c-0.1368408,0.1367798-0.3018188,0.2052002-0.4949951,0.2052002c-0.1931152,0-0.3580933-0.0684204-0.4949341-0.2052002
	c-0.1368408-0.1368408-0.2052612-0.3018188-0.2052612-0.4949951s0.0684204-0.3581543,0.2052612-0.4949951
	c0.1368408-0.1367798,0.3018188-0.2052002,0.4949341-0.2052002c0.1931763,0,0.3581543,0.0684204,0.4949951,0.2052002
	c0.1368408,0.1368408,0.2052612,0.3018188,0.2052612,0.4949951S21.7827148,16.9024048,21.645874,17.0392456z M21.5009766,16.8822632
	c-0.0079956-0.0482788-0.0200806-0.0965576-0.0361938-0.1448364c0-0.0482788-0.0080566-0.088562-0.0241089-0.1207275
	c-0.0161133-0.0322266-0.0643921-0.0563354-0.1448975-0.0724487c0.0805054-0.0161133,0.1368408-0.0442505,0.1690063-0.0845337
	c0.0322266-0.0402222,0.0482788-0.0925293,0.0482788-0.1569214c0-0.1126709-0.0402222-0.1851196-0.1207275-0.2172852
	c-0.0804443-0.0322266-0.1690063-0.0482788-0.265564-0.0482788h-0.3139038v0.9899292h0.1690063v-0.4104614h0.1207275
	c0.0322266,0,0.0603638,0,0.0845337,0c0.0241089,0,0.0442505,0.0080566,0.0603638,0.0241089
	c0.0161133,0.0322266,0.0281372,0.0643921,0.0361938,0.0966187c0.0080566,0.0321655,0.012085,0.0723877,0.012085,0.1207275
	c0,0.0321655,0.0040283,0.0643921,0.012085,0.0965576s0.0200806,0.0563354,0.0361938,0.0724487h0.1931763
	C21.5211182,16.9788818,21.5090332,16.930542,21.5009766,16.8822632z M21.2836914,16.399353
	c-0.0241089,0.0322266-0.0764771,0.0483398-0.1569214,0.0483398h-0.1690063v-0.265625h0.1931152
	c0.0643921,0,0.1087036,0.012085,0.1328125,0.0362549c0.0241699,0.0241089,0.0362549,0.0523071,0.0362549,0.0844727
	C21.3199463,16.335022,21.3078613,16.3671875,21.2836914,16.399353z"/>
</svg>
